<?xml version="1.0" encoding="UTF-8"?>
<svg width="450px" height="450px" viewBox="0 0 450 450" version="1.1" xmlns="http://www.w3.org/2000/svg" xmlns:xlink="http://www.w3.org/1999/xlink">
    <!-- Generator: Sketch 52.5 (67469) - http://www.bohemiancoding.com/sketch -->
    <title>Salesforce SVG Icon</title>
    <desc>Created with Sketch.</desc>
    <g id="Salesforce-SVG-Icon" stroke="none" stroke-width="1" fill="none" fill-rule="evenodd">
        <g id="calculator" transform="translate(32.000000, 32.000000)" fill="#000000" fill-rule="nonzero">
            <path d="M170.856902,0 L33.4292933,0 C14.9949963,0 0,14.9949963 0,33.4292933 L0,170.856902 C0,177.010509 4.98949054,182 11.1430975,182 L170.856902,182 C177.010509,182 182,177.010509 182,170.856902 L182,11.1430975 C182,4.98949054 177.010509,0 170.856902,0 Z M120.714436,102.141624 L102.141624,102.141624 L102.141624,120.714436 C102.141624,126.868043 97.1550808,131.857533 91.0014738,131.857533 C84.8449192,131.857533 79.8583756,126.868043 79.8583756,120.714436 L79.8583756,102.141624 L61.285564,102.141624 C55.1319571,102.141624 50.1424665,97.1550808 50.1424665,91.0014738 C50.1424665,84.8449192 55.1319571,79.8583756 61.285564,79.8583756 L79.8583756,79.8583756 L79.8583756,61.285564 C79.8583756,55.1319571 84.8449192,50.1424665 91.0014738,50.1424665 C97.1550808,50.1424665 102.141624,55.1319571 102.141624,61.285564 L102.141624,79.8583756 L120.714436,79.8583756 C126.868043,79.8583756 131.857533,84.8449192 131.857533,91.0014738 C131.857533,97.1550808 126.868043,102.141624 120.714436,102.141624 Z" id="Shape"></path>
            <path d="M170.856902,204 L11.1430975,204 C4.98949054,204 0,208.989491 0,215.143098 L0,352.570707 C0,371.005004 14.9949963,386 33.4292933,386 L170.856902,386 C177.010509,386 182,381.010509 182,374.856902 L182,215.143098 C182,208.989491 177.010509,204 170.856902,204 Z M119.88924,308.130936 C124.24215,312.483848 124.24215,319.539276 119.88924,323.88924 C115.598219,328.183208 108.424905,328.183208 104.130936,323.88924 L91.0014738,310.756829 L77.8690635,323.88924 C73.5750949,328.183208 66.4047283,328.183208 62.1107604,323.88924 C57.7578499,319.539276 57.7578499,312.483848 62.1107604,308.130936 L75.2431707,294.998526 L62.1107604,281.869064 C57.7578499,277.516153 57.7578499,270.460724 62.1107604,266.11076 C66.4607239,261.75785 73.5161523,261.75785 77.8690635,266.11076 L91.0014738,279.240224 L104.130936,266.11076 C108.483847,261.75785 115.539276,261.75785 119.88924,266.11076 C124.24215,270.460724 124.24215,277.516153 119.88924,281.869064 L106.759776,294.998526 L119.88924,308.130936 Z" id="Shape"></path>
            <path d="M352.570707,0 L215.143098,0 C208.989491,0 204,4.98949054 204,11.1430975 L204,170.856902 C204,177.010509 208.989491,182 215.143098,182 L374.856902,182 C381.010509,182 386,177.010509 386,170.856902 L386,33.4292933 C386,14.9949963 371.005004,0 352.570707,0 Z M324.714436,102.141624 L265.285564,102.141624 C259.131957,102.141624 254.142467,97.1550808 254.142467,91.0014738 C254.142467,84.8449192 259.131957,79.8583756 265.285564,79.8583756 L324.714436,79.8583756 C330.868043,79.8583756 335.857533,84.8449192 335.857533,91.0014738 C335.857533,97.1550808 330.868043,102.141624 324.714436,102.141624 Z" id="Shape"></path>
            <path d="M374.856902,204 L215.143098,204 C208.989491,204 204,208.989491 204,215.143098 L204,374.856902 C204,381.010509 208.989491,386 215.143098,386 L352.570707,386 C371.005004,386 386,371.005004 386,352.570707 L386,215.143098 C386,208.989491 381.010509,204 374.856902,204 Z M317.284722,328.427819 L272.715278,328.427819 C266.561671,328.427819 261.572181,323.438329 261.572181,317.284722 C261.572181,311.131115 266.561671,306.141624 272.715278,306.141624 L317.284722,306.141624 C323.438329,306.141624 328.427819,311.131115 328.427819,317.284722 C328.427819,323.438329 323.438329,328.427819 317.284722,328.427819 Z M317.284722,283.858376 L272.715278,283.858376 C266.561671,283.858376 261.572181,278.868885 261.572181,272.715278 C261.572181,266.561671 266.561671,261.572181 272.715278,261.572181 L317.284722,261.572181 C323.438329,261.572181 328.427819,266.561671 328.427819,272.715278 C328.427819,278.868885 323.438329,283.858376 317.284722,283.858376 Z" id="Shape"></path>
        </g>
    </g>
</svg>