<?xml version="1.0" encoding="UTF-8" standalone="no"?>
<svg width="120px" height="120px" viewBox="0 0 120 120" version="1.1" xmlns="http://www.w3.org/2000/svg" xmlns:xlink="http://www.w3.org/1999/xlink" xmlns:sketch="http://www.bohemiancoding.com/sketch/ns">
    <!-- Generator: Sketch 3.4.1 (15681) - http://www.bohemiancoding.com/sketch -->
    <title>flow</title>
    <desc>Created with Sketch.</desc>
    <defs></defs>
    <g id="Page-1" stroke="none" stroke-width="1" fill="none" fill-rule="evenodd" sketch:type="MSPage">
        <g id="flow" sketch:type="MSLayerGroup">
            <path d="M120,108 C120,114.6 114.6,120 108,120 L12,120 C5.4,120 0,114.6 0,108 L0,12 C0,5.4 5.4,0 12,0 L108,0 C114.6,0 120,5.4 120,12 L120,108 L120,108 Z" id="Shape-Copy-6" fill="#0079BC" sketch:type="MSShapeGroup"></path>
            <path d="M96.5644042,36.170259 C93.3676829,29.8997672 85.2529288,18.2194393 70.129978,25.1046852 C60.7857157,29.4079639 55.4988304,31.8669803 55.4988304,31.8669803 L41.9742403,37.7686197 C38.1627649,39.6128819 29.8021091,37.0309147 25.129978,35.3096033 C23.7775189,34.8178 22.5480108,36.2932098 23.1627649,37.6456688 C26.3594862,43.9161606 34.4742403,55.5964885 49.5971911,48.7112426 C58.9414534,44.4079639 77.7529288,36.2932098 77.7529288,36.2932098 C81.5644042,34.4489475 89.9250599,37.0309147 94.5971911,38.7522262 C95.9496501,38.9981278 97.1791583,37.6456688 96.5644042,36.170259 L96.5644042,36.170259 Z M64.1053878,55.965341 C62.3840763,56.9489475 55.6217812,60.022718 55.6217812,60.022718 L48.8594862,62.9735377 C45.539814,64.8178 38.2857157,62.3587836 33.982437,60.6374721 C32.7529288,60.022718 31.6463714,61.6210787 32.2611255,62.8505869 C34.9660435,68.9981278 42.2201419,80.0637016 55.4988304,73.3014065 C63.7365353,69.1210787 70.7447321,66.4161606 70.7447321,66.4161606 C74.0644042,64.5718983 81.3185026,67.0309147 85.6217812,68.7522262 C86.8512894,69.2440295 87.9578468,67.7686197 87.3430927,66.4161606 C84.5152239,60.2686197 77.2611255,49.2030459 64.1053878,55.965341 L64.1053878,55.965341 Z M59.187355,83.1374721 C57.834896,83.875177 55.4988304,85.3505869 55.4988304,85.3505869 C52.9168632,86.9489475 47.5070271,84.8587836 44.3103058,83.2604229 C43.4496501,82.7686197 42.5889944,84.2440295 43.0807976,85.4735377 C45.0480108,91.0063246 50.4578468,100.965341 60.4168632,94.8178 C64.1053878,92.4817344 64.1053878,92.6046852 64.1053878,92.6046852 C66.8103058,91.2522262 72.0971911,93.0964885 75.2939124,94.5718983 C76.1545681,95.0637016 77.0152239,93.5882918 76.5234206,92.3587836 C74.5562075,86.9489475 69.5152239,77.4817344 59.187355,83.1374721 L59.187355,83.1374721 Z" id="Shape" fill="#FFFFFF" sketch:type="MSShapeGroup"></path>
        </g>
    </g>
</svg>