<?xml version="1.0" encoding="UTF-8"?>
<svg width="450px" height="450px" viewBox="0 0 450 450" version="1.1" xmlns="http://www.w3.org/2000/svg" xmlns:xlink="http://www.w3.org/1999/xlink">
    <!-- Generator: Sketch 52.5 (67469) - http://www.bohemiancoding.com/sketch -->
    <title>Salesforce SVG Icon</title>
    <desc>Created with Sketch.</desc>
    <g id="Salesforce-SVG-Icon" stroke="none" stroke-width="1" fill="none" fill-rule="evenodd">
        <g id="audio-mixer-controls" transform="translate(32.000000, 32.000000)" fill="#000000" fill-rule="nonzero">
            <path d="M94.2255857,124.860282 L94.2255857,15.6279266 C94.2255857,6.99830953 85.4003041,0 74.5051489,0 C63.5996959,0 54.7744143,6.99830953 54.7744143,15.6279266 L54.7744143,124.860282 C23.2423111,131.736244 0,154.582706 0,181.703195 C0,208.83184 23.252609,231.678303 54.7744143,238.554264 L54.7744143,370.372073 C54.7744143,379.009847 63.5996959,386 74.5051489,386 C85.4003041,386 94.2255857,379.009847 94.2255857,370.372073 L94.2255857,238.554264 C125.757689,231.678303 149,208.83184 149,181.703195 C149,154.582706 125.757689,131.736244 94.2255857,124.860282 Z M94.2255857,204.631223 C88.6029442,207.689925 81.8166425,209.476207 74.5051489,209.476207 C67.1833575,209.476207 60.3970558,207.689925 54.7744143,204.631223 C45.5372175,199.631265 39.4408736,191.221875 39.4408736,181.703195 C39.4408736,172.184515 45.5372175,163.783281 54.7744143,158.775167 C60.3970558,155.724622 67.1833575,153.930183 74.5051489,153.930183 C81.8166425,153.930183 88.6029442,155.724622 94.2255857,158.775167 C103.462783,163.783281 109.559126,172.184515 109.559126,181.703195 C109.559126,191.230031 103.462783,199.631265 94.2255857,204.631223 Z" id="Shape"></path>
            <path d="M266,77.4398073 C266,50.3105889 242.738701,27.4636435 211.219074,20.5875367 L211.219074,15.6282569 C211.219074,6.99845741 202.394402,0 191.5,0 C180.595301,0 171.770629,6.99845741 171.770629,15.6282569 L171.770629,20.5875367 C140.251002,27.4636435 117,50.3105889 117,77.4398073 C117,104.569026 140.261299,127.407814 171.770629,134.283921 L171.770629,370.371743 C171.770629,379.001543 180.595301,386 191.5,386 C202.394402,386 211.219074,379.001543 211.219074,370.371743 L211.219074,134.292078 C242.738701,127.415971 266,104.569026 266,77.4398073 Z M211.219074,100.36832 C205.586524,103.418929 198.800691,105.213406 191.489703,105.213406 C184.178715,105.213406 177.392882,103.418929 171.760332,100.36832 C162.523773,95.3682565 156.438148,86.9586882 156.438148,77.4398073 C156.438148,67.9209264 162.523773,59.5195148 171.760332,54.5112947 C177.392882,51.4606851 184.178715,49.6743655 191.489703,49.6743655 C198.800691,49.6743655 205.586524,51.4606851 211.219074,54.5112947 C220.455632,59.5195148 226.541258,67.9209264 226.541258,77.4398073 C226.541258,86.9586882 220.46593,95.3682565 211.219074,100.36832 Z" id="Shape"></path>
            <path d="M331.215288,221.959176 L331.215288,15.6275964 C331.215288,6.99816165 322.390006,0 311.494851,0 C300.599696,0 291.774414,6.99816165 291.774414,15.6275964 L291.774414,221.942863 C260.242311,228.826836 237,251.672816 237,278.800887 C237,305.928959 260.252609,328.758627 291.774414,335.642599 L291.774414,370.372404 C291.774414,379.009995 300.599696,386 311.494851,386 C322.400304,386 331.215288,379.009995 331.215288,370.372404 L331.215288,335.634443 C362.747391,328.766783 386,305.920803 386,278.792731 C386,251.664659 362.737093,228.826836 331.215288,221.959176 Z M331.215288,301.720275 C325.592646,304.770755 318.806345,306.565156 311.494851,306.565156 C304.183358,306.565156 297.397056,304.770755 291.774414,301.720275 C282.537217,296.720423 276.440874,288.303053 276.440874,278.792731 C276.440874,269.266096 282.537217,260.873196 291.774414,255.857031 C297.397056,252.80655 304.183358,251.020306 311.494851,251.020306 C318.806345,251.020306 325.592646,252.80655 331.215288,255.857031 C340.452485,260.86504 346.548829,269.266096 346.548829,278.792731 C346.559126,288.31121 340.47308,296.720423 331.215288,301.720275 Z" id="Shape"></path>
        </g>
    </g>
</svg>