<?xml version="1.0" encoding="UTF-8"?>
<svg width="450px" height="450px" viewBox="0 0 450 450" version="1.1" xmlns="http://www.w3.org/2000/svg" xmlns:xlink="http://www.w3.org/1999/xlink">
    <!-- Generator: Sketch 52.5 (67469) - http://www.bohemiancoding.com/sketch -->
    <title>Salesforce SVG Icon</title>
    <desc>Created with Sketch.</desc>
    <g id="Salesforce-SVG-Icon" stroke="none" stroke-width="1" fill="none" fill-rule="evenodd">
        <g id="credit-card" transform="translate(32.000000, 64.000000)" fill="#000000">
            <path d="M354,39.1664219 C354,17.5618438 335.961827,0 313.77295,0 L40.2270499,0 C18.0381733,0 0,17.5618438 0,39.1664219 L0,47 L354,47 L354,39.1664219 Z" id="Path"></path>
            <path d="M352.771817,271.372536 L328.619648,265.353754 L327.605922,261.298488 C333.881368,254.379039 338.322453,245.544352 340.172653,236.371726 C344.46892,234.150985 347.590803,229.935047 348.218348,224.849369 L349.956163,210.881481 C350.487163,206.633107 349.183801,202.352297 346.368147,199.134334 C345.499239,198.136359 344.517947,197.283968 343.423515,196.559814 L343.842129,188.014788 L345.306149,186.534043 C349.457597,182.140838 355.057226,172.710986 346.190896,159.145155 C341.975335,152.708476 333.302096,145 315.875666,145 C310.758765,145 299.189166,145 287.95823,152.048439 C254.843186,153.191246 250.94894,171.053728 250.94894,184.523005 C250.94894,187.178239 251.415828,192.166608 251.88196,196.318429 C250.690983,197.075019 249.580712,197.992282 248.647692,199.086057 C245.783766,202.320615 244.46381,206.633107 245.011403,210.86564 L246.749219,224.865964 C247.409197,230.095719 250.74001,234.457242 255.647228,236.59727 C257.449156,245.38368 261.665471,253.864588 267.538141,260.623365 L266.363758,265.354508 L242.211589,271.37329 C222.677002,276.265106 209,293.773808 209,313.953585 C209,318.395067 212.60461,322 217.045695,322 L377.954305,322 C382.39539,322 386,318.379227 386,313.937745 C385.999246,293.773054 372.322244,276.264351 352.771817,271.372536 Z" id="Path"></path>
            <path d="M235.023235,256.10375 C237.662386,255.32 239.721512,253.2395 240.462194,250.58375 C241.202122,247.94375 240.526306,245.096 238.67611,243.0635 C234.443964,238.42325 231.773134,232.66325 230.984934,226.4075 L229.247122,212.4395 C228.314104,205.31975 229.98705,198.05525 233.897127,191.97575 C234.830145,190.5515 235.264598,188.85575 235.152213,187.16 C235.088101,186.104 235.055668,185.12825 235.055668,184.28 C235.055668,167.96 241.15385,140.03975 281.976592,136.36025 C282.974477,136.26425 283.923334,136.0085 284.808834,135.56 C298.261037,128.99975 311.213922,128.99975 316.08945,128.99975 C325.985324,128.99975 334.545406,130.91975 342.301448,134.85575 C344.779188,136.10375 347.772086,135.992 350.154035,134.552 C352.53523,133.09625 354,130.50425 354,127.72025 L354,113 L0,113 L0,217.00025 C0,239.06375 18.0380965,257 40.2268785,257 L231.353766,257 C232.223427,257 234.218441,256.39175 235.023235,256.10375 Z M56.3182332,161 L120.68139,161 C125.122465,161 128.727067,164.58425 128.727067,169.00025 C128.727067,173.41625 125.122465,177.0005 120.68139,177.0005 L56.3182332,177.0005 C51.8771581,177.0005 48.2725559,173.41625 48.2725559,169.00025 C48.2725559,164.58425 51.8771581,161 56.3182332,161 Z M168.953945,209 L56.3182332,209 C51.8771581,209 48.2725559,205.41575 48.2725559,200.99975 C48.2725559,196.58375 51.8771581,192.9995 56.3182332,192.9995 L168.953945,192.9995 C173.395021,192.9995 176.999623,196.58375 176.999623,200.99975 C176.999623,205.41575 173.395021,209 168.953945,209 Z" id="Shape" fill-rule="nonzero"></path>
        </g>
    </g>
</svg>