<?xml version="1.0" encoding="UTF-8"?>
<svg width="450px" height="450px" viewBox="0 0 450 450" version="1.1" 
    xmlns="http://www.w3.org/2000/svg" 
    xmlns:xlink="http://www.w3.org/1999/xlink">
    <!-- Generator: Sketch 52.5 (67469) - http://www.bohemiancoding.com/sketch -->
    <title>Salesforce SVG Icon</title>
    <desc>Created with Sketch.</desc>
    <g id="Salesforce-SVG-Icon" stroke="none" stroke-width="1" fill="none" fill-rule="evenodd">
        <g id="sports-car" transform="translate(32.000000, 89.000000)" fill="#000000" fill-rule="nonzero">
            <path d="M383.782036,84.1637076 C381.894316,81.870861 379.077562,80.5325471 376.12244,80.5325471 L338.555829,80.5325471 C329.285248,56.1870427 317.207795,32.3335655 303.479823,23.3294683 C255.990329,-7.77648942 130.027041,-7.77648942 82.5375472,23.3294683 C68.7996916,32.343406 56.7716554,56.2264049 47.4516569,80.5325471 L9.88504594,80.5325471 C6.90027443,80.5325471 4.0934032,81.870861 2.22545017,84.1637076 C0.34761379,86.4467136 -0.403520763,89.4677605 0.209246899,92.3707208 L5.7735726,119.215723 C6.72237414,123.791576 10.7745474,127.058636 15.4493716,127.058636 L26.578023,127.058636 C15.8348223,139.398678 10.6262971,154.936896 10.5571137,170.484954 C10.4879303,189.693695 17.8114921,207.052414 31.2034305,219.333412 C31.3516808,219.461339 31.499931,219.549904 31.6382979,219.677831 L31.6382979,257.239185 C31.6382979,265.377314 38.2799087,272 46.463322,272 L81.1143449,272 C89.2977582,272 95.939369,265.377314 95.939369,257.239185 L95.939369,242.143791 L290.058234,242.143791 L290.058234,257.239185 C290.058234,265.377314 296.699845,272 304.883258,272 L339.534281,272 C347.697928,272 354.359305,265.377314 354.359305,257.239185 L354.359305,220.415871 C368.571562,207.455876 375.361423,189.624811 375.450373,171.823268 C375.509673,155.74382 370.063947,139.634851 358.688212,127.038955 L370.558115,127.038955 C375.252706,127.038955 379.304879,123.771895 380.233914,119.186202 L385.808123,92.3510397 C386.381357,89.4677605 385.659873,86.4663947 383.782036,84.1637076 Z M98.8154236,47.9800295 C136.668652,23.1720196 249.328951,23.1720196 287.162413,47.9800295 C294.515625,52.7822147 303.97399,72.1976068 312.641687,95.9723597 L73.3559156,95.9723597 C82.0038463,72.2074473 91.4622117,52.8018958 98.8154236,47.9800295 Z M54.4787183,174.184999 C54.4787183,158.144913 67.5445062,145.155396 83.6444823,145.155396 C99.7642252,145.155396 112.810246,158.144913 112.810246,174.184999 C112.810246,190.225084 99.7642252,203.224442 83.6444823,203.224442 C67.5445062,203.224442 54.4787183,190.225084 54.4787183,174.184999 Z M302.738571,203.224442 C286.638595,203.224442 273.572807,190.225084 273.572807,174.184999 C273.572807,158.144913 286.638595,145.155396 302.738571,145.155396 C318.858314,145.155396 331.904335,158.144913 331.904335,174.184999 C331.904335,190.225084 318.838547,203.224442 302.738571,203.224442 Z" id="Shape"></path>
        </g>
    </g>
</svg>